<svg xmlns="http://www.w3.org/2000/svg" width="61.932" height="61.781" viewBox="0 0 61.932 61.781"><defs><style>.a{fill:#f8bf53;}</style></defs><path class="a" d="M24.736,55.473v6.272L23.22,60.52A101.684,101.684,0,0,1,11.755,49.312C3.955,40.357,0,32.318,0,25.42v-.684a24.736,24.736,0,1,1,49.473,0v.684c0,.579-.031,1.168-.086,1.763L44.549,22.77A19.91,19.91,0,0,0,4.827,24.736v.684C4.827,37.077,19.846,51.188,24.736,55.473Zm14.842-3.467h7.24v-7.24h-7.24ZM24.736,14.48A10.257,10.257,0,1,1,14.48,24.736,10.268,10.268,0,0,1,24.736,14.48Zm0,4.827a5.43,5.43,0,1,0,5.43,5.43A5.436,5.436,0,0,0,24.736,19.306Zm33.943,29.42-1.357-1.238v7.749a6.551,6.551,0,0,1-6.544,6.543H35.5a6.551,6.551,0,0,1-6.544-6.543V47.489L27.6,48.727l-3.253-3.565L43.138,28.016,61.932,45.161ZM52.5,43.086l-9.358-8.537L33.78,43.086V55.237A1.719,1.719,0,0,0,35.5,56.954H50.778A1.719,1.719,0,0,0,52.5,55.237Zm0,0"/></svg>