<svg xmlns="http://www.w3.org/2000/svg" width="62.426" height="47.551" viewBox="0 0 62.426 47.551"><defs><style>.a{fill:#f8bf53;}</style></defs><g transform="translate(0 -61)"><g transform="translate(3.136 61)"><path class="a" d="M79.524,61H28.072a5.423,5.423,0,0,0-2.351.55L53.676,89.5l6.266-6.022h0L81.876,61.55A5.423,5.423,0,0,0,79.524,61Z" transform="translate(-25.721 -61)"/></g><g transform="translate(41.237 64.137)"><path class="a" d="M358.853,86.728l-20.64,20.639,20.639,20.639a5.423,5.423,0,0,0,.55-2.351V89.078A5.423,5.423,0,0,0,358.853,86.728Z" transform="translate(-338.213 -86.728)"/></g><g transform="translate(0 64.136)"><path class="a" d="M.55,86.721A5.423,5.423,0,0,0,0,89.072v36.578A5.424,5.424,0,0,0,.549,128l20.64-20.639Z" transform="translate(0 -86.721)"/></g><g transform="translate(3.135 87.362)"><path class="a" d="M61.229,277.211l-6.266,6.022a1.828,1.828,0,0,1-2.586,0l-6.023-6.023L25.714,297.85a5.423,5.423,0,0,0,2.351.55H79.518a5.423,5.423,0,0,0,2.351-.55Z" transform="translate(-25.714 -277.211)"/></g></g></svg>