<svg xmlns="http://www.w3.org/2000/svg" width="62.079" height="64.283" viewBox="0 0 62.079 64.283"><defs><style>.a{fill:#f8bf53;}</style></defs><g transform="translate(0.001 -0.009)"><g transform="translate(-0.001 0.009)"><ellipse class="a" cx="1.05" cy="1.26" rx="1.05" ry="1.26" transform="translate(30.151 44.354)"/><path class="a" d="M29.976,32a9.976,9.976,0,1,0,9.976,9.976A9.976,9.976,0,0,0,29.976,32Zm0,13.3A3.325,3.325,0,1,1,33.3,41.976,3.325,3.325,0,0,1,29.976,45.3Z" transform="translate(1.062 3.462)"/><path class="a" d="M49.141,35.151l-2.55-.587a3.312,3.312,0,0,1-2.577-3.241V26.367a1.109,1.109,0,0,0-.461-.9A19.536,19.536,0,0,0,31.821,22a19.543,19.543,0,0,0-11.733,3.465,1.108,1.108,0,0,0-.46.9v4.955a3.312,3.312,0,0,1-2.577,3.241l-2.55.587L3.173,53.088A1.123,1.123,0,0,0,3,53.682V60.8a1.108,1.108,0,0,0,1.108,1.108H59.533A1.108,1.108,0,0,0,60.642,60.8V53.682a1.133,1.133,0,0,0-.175-.6Zm-17.32,20.1A12.193,12.193,0,1,1,44.014,43.062,12.193,12.193,0,0,1,31.821,55.256Z" transform="translate(-0.782 2.377)"/><path class="a" d="M62.669,23.866C58.948,20.9,48.514,14,32.038,14S5.128,20.9,1.407,23.866a1.1,1.1,0,0,0-.349,1.207l3.67,9.913a1.108,1.108,0,0,0,1.312.764l10.728-2.476a1.109,1.109,0,0,0,.859-1.084V27.234a3.352,3.352,0,0,1,1.36-2.684,21.756,21.756,0,0,1,13.05-3.9,21.759,21.759,0,0,1,13.049,3.9,3.353,3.353,0,0,1,1.361,2.685v4.955a1.109,1.109,0,0,0,.859,1.08l10.728,2.476a1.108,1.108,0,0,0,1.3-.731l3.694-9.976a1.089,1.089,0,0,0-.36-1.173Z" transform="translate(-1 1.509)"/><path class="a" d="M38.573,10.788a1.109,1.109,0,0,1-.784-.325,11.1,11.1,0,0,0-15.676,0A1.108,1.108,0,0,1,20.545,8.9a13.316,13.316,0,0,1,18.811,0,1.108,1.108,0,0,1-.784,1.892Z" transform="translate(1.087 0.534)"/><path class="a" d="M43.737,7.735a1.108,1.108,0,0,1-.784-.325,17.758,17.758,0,0,0-25.083,0A1.108,1.108,0,0,1,16.3,5.843a19.976,19.976,0,0,1,28.218,0,1.108,1.108,0,0,1-.784,1.892Z" transform="translate(0.627 -0.009)"/></g></g></svg>