<svg xmlns="http://www.w3.org/2000/svg" width="186.368" height="164.408" viewBox="0 0 186.368 164.408"><defs><style>.a{fill:#f8bf53;}</style></defs><g transform="translate(0 -30.165)"><g transform="translate(150.878 48.973)"><g transform="translate(0 0)"><path class="a" d="M418.14,81.836a3.64,3.64,0,1,0,3.64,3.64A3.641,3.641,0,0,0,418.14,81.836Z" transform="translate(-414.5 -81.836)"/></g></g><g transform="translate(0 30.165)"><g transform="translate(0 0)"><path class="a" d="M173.43,45.306A44.809,44.809,0,0,0,139.5,30.165c-14.425,0-27.588,5.591-38.065,16.17A64.5,64.5,0,0,0,93.184,56.6a64.552,64.552,0,0,0-8.254-10.27c-10.477-10.579-23.64-16.17-38.065-16.17C19.253,30.165,0,53.265,0,80.729c0,37.1,39.313,68.335,90.8,112.955a3.64,3.64,0,0,0,4.768,0c51.609-44.727,90.8-75.908,90.8-112.955C186.368,67.262,181.773,54.683,173.43,45.306ZM93.184,186.118c-48.619-42.072-85.9-72.29-85.9-105.389,0-24.676,17.018-43.283,39.585-43.283,12.53,0,23.537,4.654,32.713,13.832a54.268,54.268,0,0,1,10.285,14.2,3.64,3.64,0,0,0,3.316,2.147h.007a3.645,3.645,0,0,0,3.32-2.147,54.275,54.275,0,0,1,10.285-14.2c9.176-9.179,20.182-13.832,32.713-13.832,22.567,0,39.585,18.608,39.585,43.283C179.088,114.575,139.343,146.174,93.184,186.118Z" transform="translate(0 -30.165)"/></g></g><g transform="translate(147.976 59.991)"><path class="a" d="M425.8,114.054a3.64,3.64,0,1,0-6.447,3.381,33.745,33.745,0,0,1,3.726,15.407c0,10.518-5.006,21.682-15.755,35.132a3.64,3.64,0,0,0,5.687,4.545c11.835-14.81,17.347-27.418,17.347-39.677A40.583,40.583,0,0,0,425.8,114.054Z" transform="translate(-406.53 -112.103)"/></g><g transform="translate(54.6 75.909)"><path class="a" d="M223.528,179.86H203.144V159.476a3.64,3.64,0,0,0-3.64-3.64h-21.84a3.64,3.64,0,0,0-3.64,3.64V179.86H153.64A3.64,3.64,0,0,0,150,183.5v21.84a3.64,3.64,0,0,0,3.64,3.64h20.384v20.384a3.64,3.64,0,0,0,3.64,3.64H199.5a3.64,3.64,0,0,0,3.64-3.64V208.98h20.384a3.64,3.64,0,0,0,3.64-3.64V183.5A3.64,3.64,0,0,0,223.528,179.86Zm-3.64,21.84H199.5a3.64,3.64,0,0,0-3.64,3.64v20.384H181.3V205.34a3.64,3.64,0,0,0-3.64-3.64H157.28V187.14h20.384a3.64,3.64,0,0,0,3.64-3.64V163.116h14.56V183.5a3.64,3.64,0,0,0,3.64,3.64h20.384Z" transform="translate(-150 -155.836)"/></g></g></svg>