<svg xmlns="http://www.w3.org/2000/svg" width="41.778" height="37.169" viewBox="0 0 41.778 37.169"><defs><style>.a{fill:#fff;}</style></defs><path class="a" d="M38.464,3.638A11.234,11.234,0,0,0,30.108,0a10.51,10.51,0,0,0-6.565,2.266,13.43,13.43,0,0,0-2.654,2.771,13.423,13.423,0,0,0-2.654-2.771A10.509,10.509,0,0,0,11.671,0,11.235,11.235,0,0,0,3.314,3.638,13.059,13.059,0,0,0,0,12.556c0,3.533,1.317,6.768,4.144,10.179,2.529,3.051,6.164,6.149,10.373,9.736,1.437,1.225,3.066,2.613,4.758,4.092a2.453,2.453,0,0,0,3.23,0c1.692-1.479,3.322-2.868,4.759-4.094,4.208-3.586,7.843-6.683,10.372-9.735,2.827-3.411,4.143-6.645,4.143-10.179A13.058,13.058,0,0,0,38.464,3.638Zm0,0"/></svg>