<svg xmlns="http://www.w3.org/2000/svg" width="21" height="21" viewBox="0 0 21 21"><defs><style>.a{fill:#727272;}</style></defs><path class="a" d="M22.056,21.947h.005v-7.7c0-3.768-.811-6.67-5.216-6.67a4.573,4.573,0,0,0-4.119,2.264h-.061V7.926H8.489v14.02h4.349V15c0-1.828.347-3.6,2.61-3.6,2.23,0,2.264,2.086,2.264,3.713v6.826Z" transform="translate(-1.061 -0.947)"/><path class="a" d="M.4,7.977H4.75V22H.4Z" transform="translate(-0.049 -0.997)"/><path class="a" d="M2.522,0A2.534,2.534,0,1,0,5.043,2.522,2.523,2.523,0,0,0,2.522,0Z"/></svg>