<svg xmlns="http://www.w3.org/2000/svg" width="14.086" height="18.781" viewBox="0 0 14.086 18.781"><defs><style>.a{fill:#818181;}</style></defs><g transform="translate(-64)"><g transform="translate(64)"><path class="a" d="M77.695,7.043H76.521V5.478a5.478,5.478,0,0,0-10.956,0V7.043H64.391A.391.391,0,0,0,64,7.434v9.782a1.567,1.567,0,0,0,1.565,1.565H76.521a1.567,1.567,0,0,0,1.565-1.565V7.434A.391.391,0,0,0,77.695,7.043Zm-5.48,8.174a.391.391,0,0,1-.389.434H70.26a.391.391,0,0,1-.389-.434L70.118,13a1.548,1.548,0,0,1-.64-1.259,1.565,1.565,0,0,1,3.13,0A1.548,1.548,0,0,1,71.968,13Zm1.959-8.174h-6.26V5.478a3.13,3.13,0,1,1,6.26,0Z" transform="translate(-64)"/></g></g></svg>