<svg xmlns="http://www.w3.org/2000/svg" width="168" height="168.001" viewBox="0 0 168 168.001"><defs><style>.a{fill:#f8bf53;}</style></defs><g transform="translate(-0.002)"><g transform="translate(0.002 0)"><path class="a" d="M290.434,211.539a2.8,2.8,0,0,0,3.769,1.224c.165-.084,16.646-8.456,24.774-11.024a2.8,2.8,0,0,0-1.691-5.342c-8.562,2.708-24.931,11.024-25.626,11.376A2.8,2.8,0,0,0,290.434,211.539Z" transform="translate(-194.932 -131.867)"/><path class="a" d="M292.935,110.668a2.794,2.794,0,0,0,1.269-.305c.165-.084,16.646-8.456,24.774-11.024A2.8,2.8,0,0,0,317.286,94c-8.562,2.708-24.931,11.024-25.626,11.376a2.8,2.8,0,0,0,1.274,5.295Z" transform="translate(-194.932 -63.067)"/><path class="a" d="M165.2,42a2.8,2.8,0,0,0-2.8,2.8V154a8.41,8.41,0,0,1-8.4,8.4H86.8v-6.443c4.083-1.428,14.717-4.757,25.2-4.757,24.391,0,40.953,5.4,41.118,5.457A2.8,2.8,0,0,0,156.8,154V30.8a2.8,2.8,0,0,0-2.193-2.733s-2.2-.49-5.947-1.179a2.8,2.8,0,0,0-1.014,5.508c1.431.263,2.629.5,3.553.681v117.2A158.129,158.129,0,0,0,112,145.6c-12.2,0-24.183,4.007-27.891,5.365A65.594,65.594,0,0,0,58.8,145.6a188.685,188.685,0,0,0-42,4.8V32.968A184.3,184.3,0,0,1,58.8,28a60.708,60.708,0,0,1,22.4,4.614V142.8a2.8,2.8,0,0,0,4.242,2.4c.277-.165,28.02-16.736,52.643-24.942A2.8,2.8,0,0,0,140,117.6V2.8A2.8,2.8,0,0,0,136.216.178c-22.4,8.4-45.071,22.509-45.3,22.649a2.8,2.8,0,0,0,2.968,4.749c.207-.132,19.928-12.4,40.516-20.681V115.6c-19.113,6.642-39.068,17.486-47.6,22.341V30.8A2.8,2.8,0,0,0,85.253,28.3,64.836,64.836,0,0,0,58.8,22.4a181.727,181.727,0,0,0-45.57,5.709A2.8,2.8,0,0,0,11.2,30.8V154a2.8,2.8,0,0,0,2.8,2.8,2.759,2.759,0,0,0,.767-.109A179.865,179.865,0,0,1,58.8,151.2a60.573,60.573,0,0,1,22.4,4.617V162.4H14A8.41,8.41,0,0,1,5.6,154V44.8a2.8,2.8,0,0,0-5.6,0V154a14.016,14.016,0,0,0,14,14H154a14.016,14.016,0,0,0,14-14V44.8A2.8,2.8,0,0,0,165.2,42Z" transform="translate(-0.002 0)"/><path class="a" d="M290.434,160.339a2.8,2.8,0,0,0,3.769,1.224c.165-.084,16.646-8.456,24.774-11.024a2.8,2.8,0,0,0-1.691-5.342c-8.562,2.708-24.931,11.024-25.626,11.376A2.8,2.8,0,0,0,290.434,160.339Z" transform="translate(-194.932 -97.466)"/><path class="a" d="M290.434,262.739a2.8,2.8,0,0,0,3.769,1.224c.165-.084,16.646-8.456,24.774-11.024a2.8,2.8,0,0,0-1.691-5.342c-8.562,2.708-24.931,11.024-25.626,11.376A2.8,2.8,0,0,0,290.434,262.739Z" transform="translate(-194.932 -166.267)"/><path class="a" d="M125.172,155.194c-17.29-4.057-36.938,1.112-37.764,1.333a2.8,2.8,0,0,0,.723,5.5,2.847,2.847,0,0,0,.728-.1c.188-.053,19.1-5.029,35.036-1.291a2.8,2.8,0,1,0,1.276-5.451Z" transform="translate(-57.334 -103.23)"/><path class="a" d="M125.172,206.4c-17.29-4.054-36.938,1.112-37.764,1.333a2.8,2.8,0,0,0,.723,5.5,2.848,2.848,0,0,0,.728-.1c.188-.053,19.1-5.029,35.036-1.291a2.8,2.8,0,1,0,1.276-5.451Z" transform="translate(-57.334 -137.633)"/><path class="a" d="M290.434,313.939a2.8,2.8,0,0,0,3.769,1.224c.165-.084,16.646-8.456,24.774-11.024a2.8,2.8,0,0,0-1.691-5.342c-8.562,2.708-24.931,11.024-25.626,11.376A2.8,2.8,0,0,0,290.434,313.939Z" transform="translate(-194.932 -200.667)"/><path class="a" d="M125.172,257.6c-17.29-4.054-36.938,1.109-37.764,1.333a2.8,2.8,0,0,0,.723,5.508,2.838,2.838,0,0,0,.728-.1c.188-.053,19.1-5.029,35.036-1.291a2.8,2.8,0,1,0,1.276-5.451Z" transform="translate(-57.334 -172.032)"/><path class="a" d="M125.172,359.994c-17.29-4.057-36.938,1.112-37.764,1.333a2.8,2.8,0,0,0,.723,5.508,2.838,2.838,0,0,0,.728-.1c.188-.053,19.1-5.029,35.036-1.291a2.8,2.8,0,1,0,1.276-5.451Z" transform="translate(-57.334 -240.83)"/><path class="a" d="M125.172,308.793c-17.29-4.057-36.938,1.109-37.764,1.333a2.8,2.8,0,0,0,.723,5.508,2.838,2.838,0,0,0,.728-.1c.188-.053,19.1-5.029,35.036-1.291a2.8,2.8,0,1,0,1.276-5.451Z" transform="translate(-57.334 -206.429)"/></g></g></svg>