<svg xmlns="http://www.w3.org/2000/svg" width="19.499" height="24" viewBox="0 0 19.499 24"><defs><style>.a{fill:#727272;}</style></defs><path class="a" d="M12.326,0C5.747,0,2.25,4.216,2.25,8.812c0,2.131,1.191,4.79,3.1,5.633.544.245.472-.054.94-1.844a.425.425,0,0,0-.1-.417C3.46,9.031,5.654,2.549,11.937,2.549c9.093,0,7.394,12.582,1.582,12.582A2.146,2.146,0,0,1,11.258,12.5c.428-1.733,1.266-3.6,1.266-4.845,0-3.148-4.69-2.681-4.69,1.49A5.046,5.046,0,0,0,8.29,11.3S6.781,17.4,6.5,18.539a16.177,16.177,0,0,0,.111,5.318.158.158,0,0,0,.288.073,18.858,18.858,0,0,0,2.484-4.678c.186-.685.949-3.465.949-3.465a4.146,4.146,0,0,0,3.5,1.668c4.6,0,7.918-4.04,7.918-9.053C21.733,3.6,17.62,0,12.326,0Z" transform="translate(-2.25)"/></svg>