<svg xmlns="http://www.w3.org/2000/svg" width="20.877" height="16.962" viewBox="0 0 20.877 16.962"><defs><style>.a{fill:#727272;}</style></defs><g transform="translate(0 -48)"><g transform="translate(0 48)"><path class="a" d="M20.877,50.008a8.923,8.923,0,0,1-2.466.676,4.256,4.256,0,0,0,1.883-2.366,8.553,8.553,0,0,1-2.714,1.036,4.28,4.28,0,0,0-7.4,2.927,4.407,4.407,0,0,0,.1.976A12.114,12.114,0,0,1,1.454,48.78,4.281,4.281,0,0,0,2.769,54.5a4.227,4.227,0,0,1-1.934-.527v.047a4.3,4.3,0,0,0,3.429,4.205,4.272,4.272,0,0,1-1.122.141,3.784,3.784,0,0,1-.81-.073,4.321,4.321,0,0,0,4,2.981A8.6,8.6,0,0,1,1.024,63.1,8.016,8.016,0,0,1,0,63.042a12.049,12.049,0,0,0,6.566,1.921A12.1,12.1,0,0,0,18.747,52.783c0-.189-.007-.372-.016-.553A8.538,8.538,0,0,0,20.877,50.008Z" transform="translate(0 -48)"/></g></g></svg>